<mxfile host="Electron" agent="Mozilla/5.0 (X11; Linux x86_64) AppleWebKit/537.36 (KHTML, like Gecko) draw.io/24.7.8 Chrome/128.0.6613.36 Electron/32.0.1 Safari/537.36" version="24.7.8">
  <diagram name="Page-1" id="fG5IDyBmvOzE_r2AxW1l">
    <mxGraphModel dx="1182" dy="591" grid="1" gridSize="10" guides="1" tooltips="1" connect="1" arrows="1" fold="1" page="1" pageScale="1" pageWidth="1100" pageHeight="850" math="0" shadow="0">
      <root>
        <mxCell id="0" />
        <mxCell id="1" parent="0" />
        <mxCell id="Ur8MNDz23sSShjv3OH9V-23" value="" style="rounded=0;whiteSpace=wrap;html=1;movable=1;resizable=1;rotatable=1;deletable=1;editable=1;locked=0;connectable=1;" vertex="1" parent="1">
          <mxGeometry x="150" y="190" width="220" height="140" as="geometry" />
        </mxCell>
        <mxCell id="Ur8MNDz23sSShjv3OH9V-1" value="" style="rounded=0;whiteSpace=wrap;html=1;fillColor=none;movable=0;resizable=0;rotatable=0;deletable=0;editable=0;locked=1;connectable=0;" vertex="1" parent="1">
          <mxGeometry x="40" y="120" width="440" height="570" as="geometry" />
        </mxCell>
        <mxCell id="Ur8MNDz23sSShjv3OH9V-2" value="Node" style="text;html=1;align=center;verticalAlign=middle;whiteSpace=wrap;rounded=0;" vertex="1" parent="1">
          <mxGeometry x="40" y="80" width="60" height="30" as="geometry" />
        </mxCell>
        <mxCell id="Ur8MNDz23sSShjv3OH9V-5" value="Computed Property" style="text;html=1;align=center;verticalAlign=middle;whiteSpace=wrap;rounded=0;fontColor=#CC6600;" vertex="1" parent="1">
          <mxGeometry x="510" y="440" width="80" height="40" as="geometry" />
        </mxCell>
        <mxCell id="Ur8MNDz23sSShjv3OH9V-6" value="" style="rhombus;whiteSpace=wrap;html=1;fillColor=#fa6800;fontColor=#000000;strokeColor=#C73500;" vertex="1" parent="1">
          <mxGeometry x="460" y="440" width="40" height="40" as="geometry" />
        </mxCell>
        <mxCell id="Ur8MNDz23sSShjv3OH9V-12" value="" style="group" vertex="1" connectable="0" parent="1">
          <mxGeometry x="20" y="400" width="140" height="40" as="geometry" />
        </mxCell>
        <mxCell id="Ur8MNDz23sSShjv3OH9V-3" value="" style="ellipse;whiteSpace=wrap;html=1;aspect=fixed;" vertex="1" parent="Ur8MNDz23sSShjv3OH9V-12">
          <mxGeometry width="40" height="40" as="geometry" />
        </mxCell>
        <mxCell id="Ur8MNDz23sSShjv3OH9V-8" value="Input Property" style="text;html=1;align=center;verticalAlign=middle;whiteSpace=wrap;rounded=0;" vertex="1" parent="Ur8MNDz23sSShjv3OH9V-12">
          <mxGeometry x="50" width="90" height="40" as="geometry" />
        </mxCell>
        <mxCell id="Ur8MNDz23sSShjv3OH9V-13" value="&lt;font style=&quot;font-size: 20px;&quot;&gt;NodeDataLogic&lt;/font&gt;" style="shape=hexagon;perimeter=hexagonPerimeter2;whiteSpace=wrap;html=1;fixedSize=1;" vertex="1" parent="1">
          <mxGeometry x="160" y="400" width="200" height="120" as="geometry" />
        </mxCell>
        <mxCell id="Ur8MNDz23sSShjv3OH9V-16" value="" style="endArrow=none;dashed=1;html=1;rounded=0;entryX=0;entryY=0.5;entryDx=0;entryDy=0;exitX=1;exitY=1;exitDx=0;exitDy=0;" edge="1" parent="1" source="Ur8MNDz23sSShjv3OH9V-3" target="Ur8MNDz23sSShjv3OH9V-13">
          <mxGeometry width="50" height="50" relative="1" as="geometry">
            <mxPoint x="90" y="510" as="sourcePoint" />
            <mxPoint x="140" y="460" as="targetPoint" />
          </mxGeometry>
        </mxCell>
        <mxCell id="Ur8MNDz23sSShjv3OH9V-17" value="" style="endArrow=none;dashed=1;html=1;rounded=0;entryX=0;entryY=0.5;entryDx=0;entryDy=0;exitX=1;exitY=0.5;exitDx=0;exitDy=0;" edge="1" parent="1" source="Ur8MNDz23sSShjv3OH9V-13" target="Ur8MNDz23sSShjv3OH9V-6">
          <mxGeometry width="50" height="50" relative="1" as="geometry">
            <mxPoint x="370" y="480" as="sourcePoint" />
            <mxPoint x="420" y="430" as="targetPoint" />
          </mxGeometry>
        </mxCell>
        <mxCell id="Ur8MNDz23sSShjv3OH9V-20" value="DataHoldingNode" style="text;html=1;align=center;verticalAlign=bottom;whiteSpace=wrap;rounded=0;fontColor=#33FF33;movable=1;resizable=1;rotatable=1;deletable=1;editable=1;locked=0;connectable=1;" vertex="1" parent="1">
          <mxGeometry x="160" y="160" width="200" height="20" as="geometry" />
        </mxCell>
        <mxCell id="Ur8MNDz23sSShjv3OH9V-21" value="LogicalN&lt;span style=&quot;background-color: initial;&quot;&gt;ode&lt;/span&gt;" style="text;html=1;align=center;verticalAlign=bottom;whiteSpace=wrap;rounded=0;fontColor=#33FF33;" vertex="1" parent="1">
          <mxGeometry x="160" y="360" width="200" height="40" as="geometry" />
        </mxCell>
        <mxCell id="Ur8MNDz23sSShjv3OH9V-4" value="" style="ellipse;whiteSpace=wrap;html=1;aspect=fixed;fillColor=#0050ef;fontColor=#ffffff;strokeColor=#001DBC;" vertex="1" parent="1">
          <mxGeometry x="460" y="240" width="40" height="40" as="geometry" />
        </mxCell>
        <mxCell id="Ur8MNDz23sSShjv3OH9V-7" value="Constant&lt;div&gt;Property&lt;/div&gt;" style="text;html=1;align=center;verticalAlign=middle;whiteSpace=wrap;rounded=0;fontColor=#007FFF;" vertex="1" parent="1">
          <mxGeometry x="510" y="240" width="80" height="40" as="geometry" />
        </mxCell>
        <mxCell id="Ur8MNDz23sSShjv3OH9V-9" value="PropertyDataStore" style="rounded=1;whiteSpace=wrap;html=1;fontSize=20;movable=1;resizable=1;rotatable=1;deletable=1;editable=1;locked=0;connectable=1;" vertex="1" parent="1">
          <mxGeometry x="160" y="260" width="200" height="60" as="geometry" />
        </mxCell>
        <mxCell id="Ur8MNDz23sSShjv3OH9V-10" value="" style="endArrow=none;html=1;rounded=0;entryX=0;entryY=0.5;entryDx=0;entryDy=0;exitX=1;exitY=0.5;exitDx=0;exitDy=0;" edge="1" parent="1" source="Ur8MNDz23sSShjv3OH9V-9" target="Ur8MNDz23sSShjv3OH9V-4">
          <mxGeometry width="50" height="50" relative="1" as="geometry">
            <mxPoint x="400" y="260" as="sourcePoint" />
            <mxPoint x="450" y="210" as="targetPoint" />
          </mxGeometry>
        </mxCell>
        <mxCell id="Ur8MNDz23sSShjv3OH9V-22" value="&lt;font style=&quot;font-size: 16px;&quot;&gt;NodeDataSchema&lt;/font&gt;" style="shape=process;whiteSpace=wrap;html=1;backgroundOutline=1;movable=1;resizable=1;rotatable=1;deletable=1;editable=1;locked=0;connectable=1;" vertex="1" parent="1">
          <mxGeometry x="160" y="200" width="200" height="50" as="geometry" />
        </mxCell>
        <mxCell id="Ur8MNDz23sSShjv3OH9V-24" value="NodeDataAccess" style="text;html=1;align=left;verticalAlign=middle;whiteSpace=wrap;rounded=0;textDirection=vertical-lr;direction=east;flipH=0;flipV=0;rotation=180;fontColor=#B3B3B3;movable=1;resizable=1;rotatable=1;deletable=1;editable=1;locked=0;connectable=1;" vertex="1" parent="1">
          <mxGeometry x="90" y="190" width="60" height="140" as="geometry" />
        </mxCell>
      </root>
    </mxGraphModel>
  </diagram>
</mxfile>
